<?xml version="1.0" encoding="UTF-8" standalone="no" ?>
<!DOCTYPE svg PUBLIC "-//W3C//DTD SVG 1.1//EN" "http://www.w3.org/Graphics/SVG/1.1/DTD/svg11.dtd">
<svg xmlns="http://www.w3.org/2000/svg" xmlns:xlink="http://www.w3.org/1999/xlink" version="1.1" width="396.66035721593903" height="542.2877191306115" viewBox="58.85874461208664 -42.58870916656565 396.66035721593903 542.2877191306115" xml:space="preserve">
<desc>Created with Fabric.js 4.6.0</desc>
<defs>
</defs>
<g transform="matrix(-0.77 1.39 -1.39 -0.77 257.19 124.18)" id="HWVAfDpVYYLmKhOZVczQ-"  >
<path style="stroke: none; stroke-width: 1; stroke-dasharray: none; stroke-linecap: butt; stroke-dashoffset: 0; stroke-linejoin: miter; stroke-miterlimit: 4; fill: rgb(33,208,195); fill-rule: nonzero; opacity: 1;" vector-effect="non-scaling-stroke"  transform=" translate(-294.68, -758.81)" d="M 351.1 846.96 L 254.00000000000003 779.0600000000001 L 254.00000000000003 662.36 C 254.00000000000003 656.86 249.50000000000003 652.36 244.00000000000003 652.36 C 238.50000000000003 652.36 234.00000000000003 656.86 234.00000000000003 662.36 L 234.00000000000003 784.36 C 234.00000000000003 787.66 235.60000000000002 790.66 238.30000000000004 792.5600000000001 L 339.70000000000005 863.46 C 341.40000000000003 864.6600000000001 343.40000000000003 865.26 345.40000000000003 865.26 L 345.40000000000003 865.26 C 348.50000000000006 865.26 351.6 863.76 353.6 860.86 C 356.7 856.36 355.6 850.16 351.1 846.96 z" stroke-linecap="round" />
</g>
<g transform="matrix(0.53 0 0 0.53 254.24 211.86)" id="kSAk-NTjtBlRluoJ9cVeI"  >
<path style="stroke: none; stroke-width: 1; stroke-dasharray: none; stroke-linecap: butt; stroke-dashoffset: 0; stroke-linejoin: miter; stroke-miterlimit: 4; fill: rgb(33,208,195); fill-rule: nonzero; opacity: 1;" vector-effect="non-scaling-stroke"  transform=" translate(-256, -256)" d="M 0 255.999 C 0 114.61465999999999 114.61466 0 255.999 0 C 397.38334 0 511.998 114.61466 511.998 255.999 C 511.998 397.38334 397.38334 511.998 255.999 511.998 C 114.61465999999999 511.998 0 397.38334 0 255.999 z" stroke-linecap="round" />
</g>
<g transform="matrix(0.53 0 0 0.53 186.65 216.97)" id="AicuQ060SIX0ZerxNY2az"  >
<path style="stroke: none; stroke-width: 1; stroke-dasharray: none; stroke-linecap: butt; stroke-dashoffset: 0; stroke-linejoin: miter; stroke-miterlimit: 4; fill: rgb(220,227,232); fill-rule: nonzero; opacity: 1;" vector-effect="non-scaling-stroke"  transform=" translate(-131.49, -265.39)" d="M 131.491 173.627 C 182.17000000000002 173.627 223.25400000000002 214.71 223.25400000000002 265.39 C 223.25400000000002 316.06899999999996 182.169 357.153 131.491 357.153 C 80.81300000000002 357.153 39.72800000000001 316.07000000000005 39.72800000000001 265.39 C 39.72800000000001 214.70999999999992 80.81 173.627 131.491 173.627 z" stroke-linecap="round" />
</g>
<g transform="matrix(0.53 0 0 0.53 185.3 214.89)" id="GJHitjkPYzaymOH5Yiw-q"  >
<path style="stroke: none; stroke-width: 1; stroke-dasharray: none; stroke-linecap: butt; stroke-dashoffset: 0; stroke-linejoin: miter; stroke-miterlimit: 4; fill: rgb(238,243,247); fill-rule: nonzero; opacity: 1;" vector-effect="non-scaling-stroke"  transform=" translate(-128.97, -261.5)" d="M 128.966 171.277 C 178.79700000000003 171.277 219.19400000000002 211.672 219.19400000000002 261.505 C 219.19400000000002 311.33799999999997 178.79700000000003 351.733 128.966 351.733 C 79.13300000000001 351.733 38.738000000000014 311.338 38.738000000000014 261.505 C 38.738000000000014 211.67199999999997 79.132 171.277 128.966 171.277 z" stroke-linecap="round" />
</g>
<g transform="matrix(0.53 0 0 0.53 185.3 214.89)" id="BY54ii7QYg9Mk0qKtZh4S"  >
<path style="stroke: none; stroke-width: 1; stroke-dasharray: none; stroke-linecap: butt; stroke-dashoffset: 0; stroke-linejoin: miter; stroke-miterlimit: 4; fill: rgb(254,254,254); fill-rule: nonzero; opacity: 1;" vector-effect="non-scaling-stroke"  transform=" translate(-128.97, -261.51)" d="M 128.966 178.52 C 174.798 178.52 211.952 215.674 211.952 261.50600000000003 C 211.952 307.3380000000001 174.798 344.492 128.966 344.492 C 83.132 344.492 45.980000000000004 307.338 45.980000000000004 261.50600000000003 C 45.980000000000004 215.67400000000004 83.133 178.52 128.966 178.52 z" stroke-linecap="round" />
</g>
<g transform="matrix(0.53 0 0 0.53 182.66 214.85)" id="5lmn-bGPqoYOHM7Ni9rYr"  >
<path style="stroke: none; stroke-width: 1; stroke-dasharray: none; stroke-linecap: butt; stroke-dashoffset: 0; stroke-linejoin: miter; stroke-miterlimit: 4; fill: rgb(220,227,232); fill-rule: nonzero; opacity: 1;" vector-effect="non-scaling-stroke"  transform=" translate(-124.13, -261.5)" d="M 119.3 179.539 L 128.966 171.363 L 128.966 351.635 L 119.30000000000001 343.448 C 119.3 343.448 119.3 179.539 119.3 179.539 z" stroke-linecap="round" />
</g>
<g transform="matrix(0.53 0 0 0.53 187.91 214.85)" id="DUErqYZ_IbUO_ErPXpmU5"  >
<path style="stroke: none; stroke-width: 1; stroke-dasharray: none; stroke-linecap: butt; stroke-dashoffset: 0; stroke-linejoin: miter; stroke-miterlimit: 4; fill: rgb(238,243,247); fill-rule: nonzero; opacity: 1;" vector-effect="non-scaling-stroke"  transform=" translate(-133.8, -261.5)" d="M 138.634 179.539 L 128.968 171.363 L 128.968 351.635 L 138.634 343.448 L 138.634 179.539 z" stroke-linecap="round" />
</g>
<g transform="matrix(0.53 0 0 0.53 252.03 274.69)" id="j3vog_xBufPcrhQqkGYZi"  >
<path style="stroke: none; stroke-width: 1; stroke-dasharray: none; stroke-linecap: butt; stroke-dashoffset: 0; stroke-linejoin: miter; stroke-miterlimit: 4; fill: rgb(220,227,232); fill-rule: nonzero; opacity: 1;" vector-effect="non-scaling-stroke"  transform=" translate(-251.92, -371.76)" d="M 208.377 341.01 C 191.393 365.058 197.119 398.32099999999997 221.17000000000002 415.305 C 245.21800000000002 432.289 278.481 426.563 295.46500000000003 402.512 C 312.449 378.464 306.723 345.201 282.672 328.217 C 258.624 311.234 225.362 316.96 208.377 341.01 z" stroke-linecap="round" />
</g>
<g transform="matrix(0.53 0 0 0.53 251.5 273.34)" id="_8l9B7JhP61RV_YRSdX-O"  >
<path style="stroke: none; stroke-width: 1; stroke-dasharray: none; stroke-linecap: butt; stroke-dashoffset: 0; stroke-linejoin: miter; stroke-miterlimit: 4; fill: rgb(238,243,247); fill-rule: nonzero; opacity: 1;" vector-effect="non-scaling-stroke"  transform=" translate(-250.92, -369.26)" d="M 208.109 339.024 C 191.41 362.669 197.041 395.378 220.687 412.077 C 244.33300000000003 428.776 277.041 423.145 293.74 399.501 C 310.439 375.854 304.808 343.147 281.16200000000003 326.448 C 257.51500000000004 309.74899999999997 224.80800000000005 315.38 208.10900000000004 339.02599999999995 L 208.10900000000004 339.024 z" stroke-linecap="round" />
</g>
<g transform="matrix(0.53 0 0 0.53 251.5 273.34)" id="Z1yO10gAFwjaDTnblSlBM"  >
<path style="stroke: none; stroke-width: 1; stroke-dasharray: none; stroke-linecap: butt; stroke-dashoffset: 0; stroke-linejoin: miter; stroke-miterlimit: 4; fill: rgb(254,254,254); fill-rule: nonzero; opacity: 1;" vector-effect="non-scaling-stroke"  transform=" translate(-250.92, -369.26)" d="M 211.546 341.451 C 196.18699999999998 363.199 201.36599999999999 393.281 223.114 408.64 C 244.86200000000002 423.99899999999997 274.944 418.82 290.302 397.072 C 305.661 375.324 300.482 345.242 278.73400000000004 329.88300000000004 C 256.986 314.521 226.905 319.7 211.546 341.451 z" stroke-linecap="round" />
</g>
<g transform="matrix(0.53 0 0 0.53 251.45 272.85)" id="tUuBr7l0_o5-yhcPowI3G"  >
<path style="stroke: none; stroke-width: 1; stroke-dasharray: none; stroke-linecap: butt; stroke-dashoffset: 0; stroke-linejoin: miter; stroke-miterlimit: 4; fill: rgb(220,227,232); fill-rule: nonzero; opacity: 1;" vector-effect="non-scaling-stroke"  transform=" translate(-250.92, -368.34)" d="M 215.268 337.207 L 208.149 339.054 L 293.69100000000003 399.467 L 293.045 392.13599999999997 L 215.268 337.207 L 215.268 337.207 L 215.268 337.207 z" stroke-linecap="round" />
</g>
<g transform="matrix(0.53 0 0 0.53 251.45 273.87)" id="RTc6aG3h_eO9PH7gKiHeK"  >
<path style="stroke: none; stroke-width: 1; stroke-dasharray: none; stroke-linecap: butt; stroke-dashoffset: 0; stroke-linejoin: miter; stroke-miterlimit: 4; fill: rgb(238,243,247); fill-rule: nonzero; opacity: 1;" vector-effect="non-scaling-stroke"  transform=" translate(-250.92, -370.18)" d="M 208.787 346.381 L 208.14700000000002 339.054 L 293.689 399.467 L 286.565 401.31 L 208.787 346.381 z" stroke-linecap="round" />
</g>
<g transform="matrix(0.53 0 0 0.53 275.1 168.05)" id="yo__AzwcUxHr5cnSbdi9e"  >
<path style="stroke: none; stroke-width: 1; stroke-dasharray: none; stroke-linecap: butt; stroke-dashoffset: 0; stroke-linejoin: miter; stroke-miterlimit: 4; fill: rgb(237,76,84); fill-rule: nonzero; opacity: 1;" vector-effect="non-scaling-stroke"  transform=" translate(-294.47, -175.32)" d="M 341.264 236.238 L 341.264 114.409 C 341.264 52.501000000000005 247.668 52.49900000000001 247.668 114.409 L 247.668 236.238 C 247.668 298.147 341.264 298.146 341.264 236.238 z" stroke-linecap="round" />
</g>
<g transform="matrix(0.53 0 0 0.53 272.74 168.05)" id="Zly4OWhQqEnyGOgLzSOlp"  >
<path style="stroke: none; stroke-width: 1; stroke-dasharray: none; stroke-linecap: butt; stroke-dashoffset: 0; stroke-linejoin: miter; stroke-miterlimit: 4; fill: rgb(255,91,98); fill-rule: nonzero; opacity: 1;" vector-effect="non-scaling-stroke"  transform=" translate(-290.06, -175.32)" d="M 317.109 73.203 C 289.378 59.35 247.67 73.07900000000001 247.67 114.409 L 247.67 236.238 C 247.67 277.568 289.376 291.297 317.109 277.444 C 326.31899999999996 269.16700000000003 332.441 256.85 332.441 240.48200000000003 L 332.441 110.165 C 332.442 93.796 326.321 81.48 317.109 73.203 z" stroke-linecap="round" />
</g>
<g transform="matrix(0.53 0 0 0.53 275.1 197.23)" id="s_YPZhYytifhrlHczIfiJ"  >
<path style="stroke: none; stroke-width: 1; stroke-dasharray: none; stroke-linecap: butt; stroke-dashoffset: 0; stroke-linejoin: miter; stroke-miterlimit: 4; fill: rgb(238,243,247); fill-rule: nonzero; opacity: 1;" vector-effect="non-scaling-stroke"  transform=" translate(-294.47, -229)" d="M 341.264 236.238 L 341.264 175.322 L 247.668 175.322 L 247.668 236.238 C 247.668 298.147 341.264 298.146 341.264 236.238 z" stroke-linecap="round" />
</g>
<g transform="matrix(0.53 0 0 0.53 272.74 197.23)" id="__qiyqmIMEk5LAmqbZapW"  >
<path style="stroke: none; stroke-width: 1; stroke-dasharray: none; stroke-linecap: butt; stroke-dashoffset: 0; stroke-linejoin: miter; stroke-miterlimit: 4; fill: rgb(254,254,254); fill-rule: nonzero; opacity: 1;" vector-effect="non-scaling-stroke"  transform=" translate(-290.06, -228.99)" d="M 332.442 240.484 L 332.442 175.325 L 247.67 175.325 L 247.67 236.24099999999999 C 247.67 277.57099999999997 289.376 291.29999999999995 317.109 277.447 C 326.319 269.169 332.442 256.853 332.442 240.484 z" stroke-linecap="round" />
</g>
<g transform="matrix(0.53 0 0 0.53 257.9 148.7)" id="z1-l-yCc8ypRHYeNF0Hfy"  >
<path style="stroke: none; stroke-width: 1; stroke-dasharray: none; stroke-linecap: butt; stroke-dashoffset: 0; stroke-linejoin: miter; stroke-miterlimit: 4; fill: rgb(255,135,142); fill-rule: nonzero; opacity: 1;" vector-effect="non-scaling-stroke"  transform=" translate(-262.8, -139.55)" d="M 259.468 175.325 L 266.13100000000003 175.325 L 266.13100000000003 107.097 C 266.13100000000003 105.265 264.632 103.76599999999999 262.8 103.76599999999999 L 262.798 103.76599999999999 C 260.966 103.76599999999999 259.467 105.26499999999999 259.467 107.097 L 259.467 175.325 L 259.468 175.325 z" stroke-linecap="round" />
</g>
<g transform="matrix(0.53 0 0 0.53 335.81 212.15)" id="CxE4XvavcFRLzXkayly9K"  >
<path style="stroke: none; stroke-width: 1; stroke-dasharray: none; stroke-linecap: butt; stroke-dashoffset: 0; stroke-linejoin: miter; stroke-miterlimit: 4; fill: rgb(237,76,84); fill-rule: nonzero; opacity: 1;" vector-effect="non-scaling-stroke"  transform=" translate(-406.33, -256.48)" d="M 453.122 195.561 L 453.122 317.39 C 453.122 379.29999999999995 359.528 379.30199999999996 359.528 317.39 L 359.528 195.561 C 359.528 133.648 453.122 133.653 453.122 195.561 z" stroke-linecap="round" />
</g>
<g transform="matrix(0.53 0 0 0.53 333.44 212.15)" id="-S7l2nxaILDyfMe_nJZOn"  >
<path style="stroke: none; stroke-width: 1; stroke-dasharray: none; stroke-linecap: butt; stroke-dashoffset: 0; stroke-linejoin: miter; stroke-miterlimit: 4; fill: rgb(255,91,98); fill-rule: nonzero; opacity: 1;" vector-effect="non-scaling-stroke"  transform=" translate(-401.91, -256.47)" d="M 428.967 358.594 C 401.234 372.447 359.528 358.71999999999997 359.528 317.388 L 359.528 195.558 C 359.528 154.226 401.23400000000004 140.49699999999999 428.967 154.35199999999998 C 438.179 162.62899999999996 444.299 174.94599999999997 444.299 191.31399999999996 L 444.299 321.631 C 444.3 338 438.177 350.319 428.967 358.594 z" stroke-linecap="round" />
</g>
<g transform="matrix(0.53 0 0 0.53 335.81 182.98)" id="AaNmRClOvNUW5qr-SZUZh"  >
<path style="stroke: none; stroke-width: 1; stroke-dasharray: none; stroke-linecap: butt; stroke-dashoffset: 0; stroke-linejoin: miter; stroke-miterlimit: 4; fill: rgb(238,243,247); fill-rule: nonzero; opacity: 1;" vector-effect="non-scaling-stroke"  transform=" translate(-406.33, -202.8)" d="M 453.122 195.561 L 453.122 256.477 L 359.528 256.477 L 359.528 195.56099999999998 C 359.528 133.648 453.122 133.653 453.122 195.561 z" stroke-linecap="round" />
</g>
<g transform="matrix(0.53 0 0 0.53 333.44 183.03)" id="3MhMRy2z-dW7DkYV-PrOH"  >
<path style="stroke: none; stroke-width: 1; stroke-dasharray: none; stroke-linecap: butt; stroke-dashoffset: 0; stroke-linejoin: miter; stroke-miterlimit: 4; fill: rgb(254,254,254); fill-rule: nonzero; opacity: 1;" vector-effect="non-scaling-stroke"  transform=" translate(-401.91, -202.8)" d="M 444.3 191.315 L 444.3 256.475 L 359.528 256.475 L 359.528 195.55900000000003 C 359.528 154.22700000000003 401.23400000000004 140.49800000000002 428.967 154.353 C 438.179 162.63 444.3 174.946 444.3 191.315 z" stroke-linecap="round" />
</g>
<g transform="matrix(0.53 0 0 0.53 318.66 231.56)" id="7UzVQGNNy4ommZ5htKKkM"  >
<path style="stroke: none; stroke-width: 1; stroke-dasharray: none; stroke-linecap: butt; stroke-dashoffset: 0; stroke-linejoin: miter; stroke-miterlimit: 4; fill: rgb(255,135,142); fill-rule: nonzero; opacity: 1;" vector-effect="non-scaling-stroke"  transform=" translate(-374.66, -292.25)" d="M 371.324 256.474 L 377.98900000000003 256.474 L 377.98900000000003 324.702 C 377.98900000000003 326.534 376.49 328.033 374.658 328.033 L 374.658 328.033 C 372.824 328.033 371.326 326.534 371.326 324.702 L 371.326 256.474 L 371.324 256.474 z" stroke-linecap="round" />
</g>
<g transform="matrix(0.92 0 0 0.92 257.19 286.68)" id="FtrNuRMl30mNL8JPy0Hkc"  >
<path style="stroke: none; stroke-width: 1; stroke-dasharray: none; stroke-linecap: butt; stroke-dashoffset: 0; stroke-linejoin: miter; stroke-miterlimit: 4; fill: rgb(33,208,195); fill-rule: nonzero; opacity: 1;" vector-effect="non-scaling-stroke"  transform=" translate(-231.5, -231.5)" d="M 398.897 333.618 L 325.727 315.364 C 325.45399999999995 314.952 325.154 314.55499999999995 324.796 314.197 L 300.804 290.197 C 299.73499999999996 289.128 298.376 288.41700000000003 296.912 288.136 C 347.792 263.68 383 211.62500000000003 383 151.50000000000003 C 383 67.96300000000002 315.03700000000003 2.842170943040401e-14 231.5 2.842170943040401e-14 C 147.96299999999997 2.842170943040401e-14 80 67.96300000000002 80 151.50000000000003 C 80 211.62500000000003 115.208 263.68000000000006 166.089 288.13700000000006 C 164.625 288.41800000000006 163.266 289.12800000000004 162.197 290.19800000000004 L 138.205 314.19800000000004 C 137.85600000000002 314.547 137.562 314.93300000000005 137.294 315.333 L 64.09900000000002 333.62 C 33.08200000000002 341.374 16.00000000000002 360.411 16.00000000000002 387.224 L 16.00000000000002 439.5 C 16.00000000000002 452.458 26.542000000000023 463 39.50000000000002 463 L 423.5 463 C 436.458 463 447 452.458 447 439.5 L 447 387.224 C 447 360.411 429.918 341.37399999999997 398.897 333.618 z M 310.201 320.814 C 304.451 331.18800000000005 290.35 356.55600000000004 277.13800000000003 380.315 C 277.107 380.371 277.04200000000003 380.487 276.85900000000004 380.531 C 276.64700000000005 380.587 276.494 380.483 276.44500000000005 380.45 L 259.70700000000005 369.291 C 259.696 369.284 259.68600000000004 369.277 259.67500000000007 369.27 L 243.27200000000008 358.334 L 295.4990000000001 306.107 L 310.2010000000001 320.814 z M 223.50000000000003 415 L 239.50000000000003 415 C 240.05800000000002 415 240.60900000000004 414.973 241.15800000000002 414.935 L 246.786 448 L 216.214 448 L 221.84199999999998 414.935 C 222.391 414.973 222.94199999999998 415 223.49999999999997 415 z M 248.00000000000003 391.5 C 248.00000000000003 396.187 244.18700000000004 400 239.50000000000003 400 L 223.50000000000003 400 C 218.81300000000002 400 215.00000000000003 396.187 215.00000000000003 391.5 L 215.00000000000003 379.514 L 231.50000000000003 368.514 L 248.00000000000003 379.514 L 248.00000000000003 391.5 z M 95.00000000000003 151.5 C 95.00000000000003 76.233 156.23300000000003 15 231.50000000000003 15 C 306.76700000000005 15 368 76.233 368 151.5 C 368 226.767 306.767 288 231.5 288 C 156.233 288 95 226.767 95 151.5 z M 231.50000000000003 303 C 251.67500000000004 303 270.937 299.026 288.557 291.836 L 231.5 348.89300000000003 L 174.44299999999998 291.836 C 192.063 299.026 211.325 303 231.5 303 z M 167.50100000000003 306.107 L 219.72800000000004 358.334 L 203.32300000000004 369.271 C 203.31400000000005 369.277 203.30500000000004 369.283 203.29600000000005 369.289 L 186.55700000000004 380.449 C 186.50700000000003 380.482 186.35600000000005 380.587 186.14200000000005 380.531 C 185.95800000000006 380.487 185.89400000000006 380.371 185.86300000000006 380.314 C 172.65100000000007 356.55600000000004 158.55000000000007 331.18800000000005 152.80000000000007 320.814 L 167.50100000000006 306.107 z M 31.00000000000003 439.5 L 31.00000000000003 387.224 C 31.00000000000003 367.405 43.36000000000003 354.26599999999996 67.73600000000002 348.17199999999997 L 140.70800000000003 329.93999999999994 C 145.03200000000004 337.74799999999993 153.99900000000002 353.8829999999999 172.75100000000003 387.60499999999996 C 174.84100000000004 391.364 178.43400000000003 394.09899999999993 182.60700000000003 395.10999999999996 C 183.80300000000003 395.4 185.02100000000002 395.54299999999995 186.23600000000002 395.54299999999995 C 189.28000000000003 395.54299999999995 192.299 394.64699999999993 194.87400000000002 392.93199999999996 L 199.99900000000002 389.515 L 199.99900000000002 391.501 C 199.99900000000002 398.363 202.95600000000002 404.546 207.66200000000003 408.847 L 200.99900000000002 448 L 103.00000000000003 448 L 103.00000000000003 407.5 C 103.00000000000003 403.357 99.64300000000003 400 95.50000000000003 400 C 91.35700000000003 400 88.00000000000003 403.357 88.00000000000003 407.5 L 88.00000000000003 448 L 39.50000000000003 448 C 34.81300000000003 448 31.00000000000003 444.187 31.00000000000003 439.5 z M 432 439.5 C 432 444.187 428.187 448 423.5 448 L 375 448 L 375 407.5 C 375 403.357 371.643 400 367.5 400 C 363.357 400 360 403.357 360 407.5 L 360 448 L 262.001 448 L 255.33599999999998 408.846 C 260.042 404.546 262.99899999999997 398.362 262.99899999999997 391.5 L 262.99899999999997 389.514 L 268.12499999999994 392.931 C 270.69899999999996 394.647 273.71799999999996 395.541 276.76199999999994 395.541 C 277.97599999999994 395.541 279.19599999999997 395.398 280.39099999999996 395.108 C 284.56499999999994 394.097 288.15799999999996 391.362 290.24699999999996 387.604 C 308.97999999999996 353.917 317.94699999999995 337.78 322.27699999999993 329.96299999999997 L 395.26199999999994 348.17099999999994 C 419.63999999999993 354.26599999999996 431.99999999999994 367.40399999999994 431.99999999999994 387.22399999999993 L 431.99999999999994 439.49999999999994 z" stroke-linecap="round" />
</g>
</svg>