<svg width="41" height="27" viewBox="0 0 41 27" fill="none" xmlns="http://www.w3.org/2000/svg">
<path d="M27.7743 0.383179C27.3209 0.383179 26.9529 0.743862 26.9529 1.18827V7.04897L26.1316 7.31747V1.18827C26.1316 0.743862 25.7636 0.383179 25.3102 0.383179C24.8568 0.383179 24.4888 0.743862 24.4888 1.18827V7.31707L23.6675 7.04857V1.18827C23.6675 0.743862 23.2995 0.383179 22.8461 0.383179C22.3927 0.383179 22.0248 0.743862 22.0248 1.18827V7.62904C22.0248 7.97563 22.2511 8.28318 22.5866 8.39267L24.4888 9.01421V25.3411C24.4888 25.7856 24.8568 26.1462 25.3102 26.1462C25.7636 26.1462 26.1316 25.7856 26.1316 25.3411V9.01421L28.0338 8.39267C28.3693 8.28318 28.5956 7.97563 28.5956 7.62904V1.18827C28.5956 0.743862 28.2276 0.383179 27.7743 0.383179Z" fill="black"/>
<path d="M21.3117 16.083C21.3117 10.5339 16.7059 6.01929 11.0448 6.01929C5.38357 6.01929 0.777832 10.5339 0.777832 16.083C0.777832 21.6321 5.38357 26.1467 11.0448 26.1467C16.7059 26.1467 21.3117 21.6321 21.3117 16.083ZM2.42054 16.083C2.42054 11.4215 6.28912 7.62948 11.0448 7.62948C15.8004 7.62948 19.669 11.4215 19.669 16.083C19.669 20.7445 15.8004 24.5365 11.0448 24.5365C6.28912 24.5365 2.42054 20.7445 2.42054 16.083Z" fill="black"/>
<path d="M18.0264 16.0832C18.0264 12.3097 14.8945 9.23987 11.0449 9.23987C7.19518 9.23987 4.06335 12.3097 4.06335 16.0832C4.06335 19.8567 7.19518 22.9265 11.0449 22.9265C14.8945 22.9265 18.0264 19.8567 18.0264 16.0832ZM5.70606 16.0832C5.70606 13.1977 8.10113 10.8501 11.0449 10.8501C13.9886 10.8501 16.3837 13.1977 16.3837 16.0832C16.3837 18.9686 13.9886 21.3163 11.0449 21.3163C8.10113 21.3163 5.70606 18.9686 5.70606 16.0832Z" fill="black"/>
<ellipse cx="36.6903" cy="16.0957" rx="4.22258" ry="4.41158" fill="#08DCA4"/>
</svg>
