<svg width="41" height="26" viewBox="0 0 41 26" fill="none" xmlns="http://www.w3.org/2000/svg">
<path d="M39.5266 0.140137C39.0729 0.140137 38.7046 0.48887 38.7046 0.91856V6.58509L37.8826 6.84469V0.91856C37.8826 0.48887 37.5144 0.140137 37.0606 0.140137C36.6069 0.140137 36.2386 0.48887 36.2386 0.91856V6.8443L35.4166 6.5847V0.91856C35.4166 0.48887 35.0483 0.140137 34.5946 0.140137C34.1408 0.140137 33.7726 0.48887 33.7726 0.91856V7.14594C33.7726 7.48105 33.999 7.77841 34.3348 7.88428L36.2386 8.48522V24.2712C36.2386 24.7009 36.6069 25.0497 37.0606 25.0497C37.5144 25.0497 37.8826 24.7009 37.8826 24.2712V8.48522L39.7864 7.88428C40.1222 7.77841 40.3486 7.48105 40.3486 7.14594V0.91856C40.3486 0.48887 39.9804 0.140137 39.5266 0.140137Z" fill="black"/>
<path d="M33.059 15.32C33.059 9.95473 28.4496 5.58972 22.7839 5.58972C17.1182 5.58972 12.5088 9.95473 12.5088 15.32C12.5088 20.6853 17.1182 25.0503 22.7839 25.0503C28.4496 25.0503 33.059 20.6853 33.059 15.32ZM14.1528 15.32C14.1528 10.8129 18.0245 7.14657 22.7839 7.14657C27.5433 7.14657 31.415 10.8129 31.415 15.32C31.415 19.8271 27.5433 23.4934 22.7839 23.4934C18.0245 23.4934 14.1528 19.8271 14.1528 15.32Z" fill="black"/>
<path d="M29.771 15.32C29.771 11.6715 26.6367 8.70337 22.7839 8.70337C18.9312 8.70337 15.7969 11.6715 15.7969 15.32C15.7969 18.9684 18.9312 21.9366 22.7839 21.9366C26.6367 21.9366 29.771 18.9684 29.771 15.32ZM17.4409 15.32C17.4409 12.5301 19.8379 10.2602 22.7839 10.2602C25.73 10.2602 28.127 12.5301 28.127 15.32C28.127 18.1098 25.73 20.3797 22.7839 20.3797C19.8379 20.3797 17.4409 18.1098 17.4409 15.32Z" fill="black"/>
<ellipse cx="4.22593" cy="14.9838" rx="4.22593" ry="4.26543" fill="#08DCA4"/>
</svg>
