<svg width="41" height="27" viewBox="0 0 41 27" fill="none" xmlns="http://www.w3.org/2000/svg">
<path d="M40.0929 0.383179C39.6412 0.383179 39.2747 0.743899 39.2747 1.18836V7.04967L38.4564 7.3182V1.18836C38.4564 0.743899 38.0898 0.383179 37.6381 0.383179C37.1864 0.383179 36.8198 0.743899 36.8198 1.18836V7.31779L36.0015 7.04927V1.18836C36.0015 0.743899 35.635 0.383179 35.1833 0.383179C34.7316 0.383179 34.365 0.743899 34.365 1.18836V7.6298C34.365 7.97643 34.5904 8.28401 34.9247 8.39351L36.8198 9.01511V25.3438C36.8198 25.7882 37.1864 26.1489 37.6381 26.1489C38.0898 26.1489 38.4564 25.7882 38.4564 25.3438V9.01511L40.3515 8.39351C40.6858 8.28401 40.9112 7.97643 40.9112 7.6298V1.18836C40.9112 0.743899 40.5446 0.383179 40.0929 0.383179Z" fill="black"/>
<path d="M21.2348 16.0848C21.2348 10.5351 16.6463 6.02002 11.0063 6.02002C5.36632 6.02002 0.777832 10.5351 0.777832 16.0848C0.777832 21.6345 5.36632 26.1495 11.0063 26.1495C16.6463 26.1495 21.2348 21.6345 21.2348 16.0848ZM2.41439 16.0848C2.41439 11.4228 6.26847 7.63038 11.0063 7.63038C15.7441 7.63038 19.5982 11.4228 19.5982 16.0848C19.5982 20.7468 15.7441 24.5392 11.0063 24.5392C6.26847 24.5392 2.41439 20.7468 2.41439 16.0848Z" fill="black"/>
<path d="M17.8616 16.0848C17.8616 12.3109 14.7415 9.24072 10.9063 9.24072C7.07102 9.24072 3.95093 12.3109 3.95093 16.0848C3.95093 19.8586 7.07102 22.9288 10.9063 22.9288C14.7415 22.9288 17.8616 19.8586 17.8616 16.0848ZM5.58748 16.0848C5.58748 13.199 7.97358 10.8511 10.9063 10.8511C13.839 10.8511 16.2251 13.199 16.2251 16.0848C16.2251 18.9705 13.839 21.3184 10.9063 21.3184C7.97358 21.3184 5.58748 18.9705 5.58748 16.0848Z" fill="black"/>
<ellipse cx="28.4756" cy="15.793" rx="4.20676" ry="4.41205" fill="#08DCA4"/>
</svg>
