<?xml version="1.0" encoding="UTF-8" standalone="no" ?>
<!DOCTYPE svg PUBLIC "-//W3C//DTD SVG 1.1//EN" "http://www.w3.org/Graphics/SVG/1.1/DTD/svg11.dtd">
<svg xmlns="http://www.w3.org/2000/svg" xmlns:xlink="http://www.w3.org/1999/xlink" version="1.1" width="144.55212521738932" height="179.3948740565615" viewBox="247.72393739130536 230.30256297171925 144.55212521738932 179.3948740565615" xml:space="preserve">
<desc>Created with Fabric.js 4.6.0</desc>
<defs>
</defs>
<g transform="matrix(5.81 0 0 5.81 320 320)" id="fUgH5wXhpsyS1VObJuwrq"  >
<path style="stroke: none; stroke-width: 1; stroke-dasharray: none; stroke-linecap: butt; stroke-dashoffset: 0; stroke-linejoin: miter; stroke-miterlimit: 4; fill: rgb(255,255,255); fill-rule: nonzero; opacity: 1;" vector-effect="non-scaling-stroke"  transform=" translate(-16, -16)" d="M 28 31.36 L 4 31.36 C 3.801 31.36 3.64 31.198999999999998 3.64 31 L 3.64 1 C 3.64 0.8009999999999999 3.801 0.64 4 0.64 L 22 0.64 C 22.096 0.64 22.188 0.678 22.255 0.745 L 28.255 6.745 C 28.322 6.813 28.36 6.904 28.36 7 L 28.36 31 C 28.36 31.199 28.199 31.36 28 31.36 z M 4.36 30.64 L 27.64 30.64 L 27.64 7.36 L 22 7.36 C 21.801 7.36 21.64 7.199000000000001 21.64 7 L 21.64 1.36 L 4.36 1.36 L 4.36 30.64 z M 22.36 6.64 L 27.131 6.64 L 22.36 1.869 L 22.36 6.64 z M 20 27.36 L 8 27.36 L 8 26.64 L 20 26.64 L 20 27.36 z M 24 23.36 L 8 23.36 L 8 22.64 L 24 22.64 L 24 23.36 z M 24 19.36 L 8 19.36 L 8 18.64 L 24 18.64 L 24 19.36 z M 16.254 9.254 L 15.745000000000001 8.745 L 13 11.491 L 10.748000000000001 9.239 C 11.684 8.925 12.36 8.04 12.36 7 C 12.36 5.699 11.301 4.640000000000001 10 4.640000000000001 L 7.64 4.640000000000001 L 7.64 13 L 8.36 13 L 8.36 9.36 L 9.850999999999999 9.36 L 12.491 12 L 9.745 14.746 L 10.254 15.255 L 13 12.509 L 15.746 15.255 L 16.255 14.746 L 13.509 12 L 16.254 9.254 z M 8.36 8.64 L 8.36 5.36 L 10 5.36 C 10.904 5.36 11.64 6.096 11.64 7 C 11.64 7.904 10.904 8.64 10 8.64 L 8.36 8.64 z" stroke-linecap="round" />
</g>
</svg>