<?xml version="1.0" encoding="UTF-8" standalone="no" ?>
<!DOCTYPE svg PUBLIC "-//W3C//DTD SVG 1.1//EN" "http://www.w3.org/Graphics/SVG/1.1/DTD/svg11.dtd">
<svg xmlns="http://www.w3.org/2000/svg" xmlns:xlink="http://www.w3.org/1999/xlink" version="1.1" width="190.59649999999993" height="139.63312500914898" viewBox="200.20175000000003 224.6834374954255 190.59649999999993 139.63312500914898" xml:space="preserve">
<desc>Created with Fabric.js 4.6.0</desc>
<defs>
</defs>
<g transform="matrix(1 0 0 1 295.5 294.5)" id="wyWM54axR7ZvVmpmcJjTA"  >
<path style="stroke: none; stroke-width: 1; stroke-dasharray: none; stroke-linecap: butt; stroke-dashoffset: 0; stroke-linejoin: miter; stroke-miterlimit: 4; fill: rgb(255,255,255); fill-rule: nonzero; opacity: 1;" vector-effect="non-scaling-stroke"  transform=" translate(-200, -200)" d="M 272.406 134.526 L 169.275 237.652 L 127.58600000000001 195.97199999999998 C 122.46300000000001 190.855 114.16400000000002 190.85199999999998 109.04100000000001 195.97499999999997 C 103.91600000000001 201.09999999999997 103.91600000000001 209.39999999999998 109.04100000000001 214.52299999999997 L 160.00400000000002 265.47799999999995 C 162.56500000000003 268.03599999999994 165.92000000000002 269.316 169.27500000000003 269.316 C 172.63000000000005 269.316 175.99400000000003 268.036 178.55400000000003 265.474 C 178.56200000000004 265.46299999999997 178.56800000000004 265.452 178.58100000000002 265.43899999999996 L 290.95 153.071 C 296.075 147.951 296.075 139.645 290.95 134.525 C 285.828 129.402 277.523 129.402 272.406 134.526 z" stroke-linecap="round" />
</g>
</svg>